<svg width="12" height="12" viewBox="0 0 12 12" fill="none" xmlns="http://www.w3.org/2000/svg">
<path d="M9.40031 12C9.16031 12 8.93365 11.9333 8.72031 11.8L6.12031 10.16C6.04031 10.1067 5.96031 10.1067 5.88031 10.16L3.28031 11.8C3.04031 11.96 2.77365 12.02 2.48031 11.98C2.18698 11.94 1.93365 11.8267 1.72031 11.64C1.45365 11.4 1.32031 11.0933 1.32031 10.72V1.28C1.32031 0.933333 1.44698 0.633333 1.70031 0.38C1.95365 0.126667 2.25365 0 2.60031 0H9.40031C9.74698 0 10.047 0.126667 10.3003 0.38C10.5536 0.633333 10.6803 0.933333 10.6803 1.28V10.72C10.6803 11.0667 10.5536 11.3667 10.3003 11.62C10.047 11.8733 9.74698 12 9.40031 12ZM6.00031 9.08C6.24031 9.08 6.46698 9.14667 6.68031 9.28L9.28031 10.92C9.30698 10.9467 9.34698 10.96 9.40031 10.96C9.45365 10.96 9.50031 10.94 9.54031 10.9C9.58031 10.86 9.60031 10.8 9.60031 10.72V1.28C9.60031 1.2 9.58031 1.14 9.54031 1.1C9.50031 1.06 9.45365 1.04 9.40031 1.04H2.60031C2.54698 1.04 2.50031 1.06 2.46031 1.1C2.42031 1.14 2.40031 1.2 2.40031 1.28V10.72C2.40031 10.8 2.43365 10.8667 2.50031 10.92C2.56698 10.9733 2.64031 10.9733 2.72031 10.92L5.32031 9.28C5.53365 9.14667 5.76031 9.08 6.00031 9.08Z" fill="#050B20"/>
</svg>
