<svg width="34" height="34" viewBox="0 0 34 34" fill="none" xmlns="http://www.w3.org/2000/svg">
<mask id="mask0_5_831" style="mask-type:luminance" maskUnits="userSpaceOnUse" x="0" y="0" width="34" height="34">
<path d="M34 0H0V34H34V0Z" fill="white"/>
</mask>
<g mask="url(#mask0_5_831)">
<path d="M29.1539 12.9591H26.4432C25.5374 11.6291 24.3322 10.5173 22.9281 9.72437C21.3558 8.83644 19.5704 8.36719 17.765 8.36719H17C16.4451 8.36719 15.9953 8.81699 15.9953 9.37184V12.9591H4.8461C2.39815 12.9591 0.369644 14.784 0.046173 17.1445C0.042542 17.1673 0.039429 17.1901 0.037354 17.2135C0.013748 17.4078 0 17.6049 0 17.8054V21.6469C0 22.2017 0.449799 22.6515 1.00465 22.6515H4.51978C4.96672 24.3781 6.5379 25.6567 8.40221 25.6567C10.2665 25.6567 11.8377 24.3781 12.2846 22.6515H21.7154C22.1626 24.3781 23.7335 25.6567 25.5978 25.6567C27.4621 25.6567 29.033 24.3781 29.4802 22.6515H32.9953C33.5502 22.6515 34 22.2017 34 21.6469V17.8054C34 15.1331 31.826 12.9591 29.1539 12.9591ZM18.0047 10.3801C20.2251 10.4437 22.3312 11.3907 23.8588 12.9591H18.0047V10.3801ZM2.00931 18.304H3.56104C4.11589 18.304 4.56569 17.8542 4.56569 17.2993C4.56569 16.7445 4.11589 16.2947 3.56104 16.2947H2.44691C2.94989 15.4986 3.83704 14.9686 4.8461 14.9686H15.9953V20.6422H12.2846C11.8374 18.9157 10.2665 17.6368 8.40221 17.6368C6.5379 17.6368 4.96698 18.9157 4.51978 20.6422H2.00931V18.304ZM10.4027 21.6469C10.4027 22.7501 9.5054 23.6474 8.40221 23.6474C7.29898 23.6474 6.40172 22.7501 6.40172 21.6469C6.40172 20.5437 7.29898 19.6464 8.40221 19.6464C9.5054 19.6464 10.4027 20.5437 10.4027 21.6469ZM27.5983 21.6469C27.5983 22.7501 26.701 23.6474 25.5978 23.6474C24.4946 23.6474 23.5973 22.7501 23.5973 21.6469C23.5973 20.5437 24.4946 19.6464 25.5978 19.6464C26.701 19.6464 27.5983 20.5437 27.5983 21.6469ZM29.4802 20.6422C29.0333 18.9157 27.4621 17.6368 25.5978 17.6368C23.7335 17.6368 22.1623 18.9157 21.7154 20.6422H18.0047V14.9686H29.1539C30.1451 14.9686 31.019 15.4802 31.5264 16.2527H29.9715C29.4167 16.2527 28.9669 16.7025 28.9669 17.2573C28.9669 17.8122 29.4167 18.2622 29.9715 18.2622H31.9907V20.6422H29.4802Z" fill="#050B20"/>
</g>
</svg>
