<svg width="17" height="18" viewBox="0 0 17 18" fill="none" xmlns="http://www.w3.org/2000/svg">
<path d="M10.14 3.36C10.14 3.2 10.09 3.07 9.99 2.97C9.89 2.87 9.76 2.82 9.6 2.82H3.96C3.8 2.82 3.67 2.87 3.57 2.97C3.47 3.07 3.42 3.2 3.42 3.36V7.86C3.42 8.02 3.47 8.16 3.57 8.28C3.67 8.4 3.8 8.46 3.96 8.46H9.6C9.76 8.46 9.89 8.4 9.99 8.28C10.09 8.16 10.14 8.02 10.14 7.86V3.36ZM9 7.32H4.5V3.96H9V7.32ZM16.62 3.96L14.34 2.88C14.22 2.8 14.08 2.78 13.92 2.82C13.76 2.86 13.65 2.95 13.59 3.09C13.53 3.23 13.52 3.38 13.56 3.54C13.6 3.7 13.7 3.8 13.86 3.84L14.7 4.32L14.64 4.5C14.64 4.86 14.75 5.18 14.97 5.46C15.19 5.74 15.46 5.94 15.78 6.06V12.9C15.78 13.06 15.72 13.2 15.6 13.32C15.48 13.44 15.35 13.5 15.21 13.5C15.07 13.5 14.94 13.44 14.82 13.32C14.7 13.2 14.64 13.06 14.64 12.9V8.4C14.64 7.76 14.41 7.18 13.95 6.66C13.49 6.14 12.98 5.82 12.42 5.7V2.22C12.42 1.62 12.2 1.1 11.76 0.66C11.32 0.220001 10.8 0 10.2 0H3.42C2.82 0 2.29 0.220001 1.83 0.66C1.37 1.1 1.14 1.62 1.14 2.22V14.82L0.36 15.24C0.12 15.36 0 15.52 0 15.72V17.4C0 17.56 0.06 17.7 0.18 17.82C0.3 17.94 0.44 18 0.6 18H12.96C13.12 18 13.25 17.94 13.35 17.82C13.45 17.7 13.5 17.56 13.5 17.4V15.72C13.5 15.52 13.4 15.36 13.2 15.24L12.42 14.82V6.84C12.7 6.96 12.95 7.17 13.17 7.47C13.39 7.77 13.5 8.08 13.5 8.4V12.9C13.5 13.38 13.67 13.79 14.01 14.13C14.35 14.47 14.75 14.64 15.21 14.64C15.67 14.64 16.07 14.47 16.41 14.13C16.75 13.79 16.92 13.38 16.92 12.9V4.5C16.92 4.26 16.82 4.08 16.62 3.96ZM12.42 16.86H1.14V16.08L1.98 15.66C2.18 15.58 2.28 15.42 2.28 15.18V2.22C2.28 1.94 2.39 1.69 2.61 1.47C2.83 1.25 3.1 1.14 3.42 1.14H10.2C10.48 1.14 10.73 1.25 10.95 1.47C11.17 1.69 11.28 1.94 11.28 2.22V15.18C11.28 15.42 11.38 15.58 11.58 15.66L12.42 16.08V16.86Z" fill="white"/>
</svg>
