<svg width="30" height="18" viewBox="0 0 30 18" fill="none" xmlns="http://www.w3.org/2000/svg">
<path d="M24.4375 5.31264H23.1944C23.0545 5.31354 22.9159 5.28674 22.7865 5.23384C22.657 5.18094 22.5393 5.10304 22.44 5.00454L19.6137 2.17834C18.9168 1.48134 18.0882 0.929862 17.1762 0.555942C16.2641 0.182012 15.2869 -0.00689758 14.3013 0.000192418H5.3125C3.90354 0.000192418 2.55228 0.559902 1.556 1.55614C0.55971 2.55244 0 3.90374 0 5.31264V10.6251C0 11.4705 0.33583 12.2813 0.9336 12.8791C1.53137 13.4768 2.34212 13.8126 3.1875 13.8126C3.1875 14.7989 3.5793 15.7448 4.2767 16.4422C4.9741 17.1396 5.91998 17.5314 6.90625 17.5314C7.8925 17.5314 8.8384 17.1396 9.5358 16.4422C10.2332 15.7448 10.625 14.7989 10.625 13.8126H18.1688C18.2862 14.7016 18.7228 15.5176 19.3971 16.1087C20.0715 16.6998 20.9376 17.0257 21.8344 17.0257C22.7311 17.0257 23.5973 16.6998 24.2716 16.1087C24.946 15.5176 25.3825 14.7016 25.5 13.8126H26.5625C27.4079 13.8126 28.2186 13.4768 28.8164 12.8791C29.4142 12.2813 29.75 11.4705 29.75 10.6251C29.75 9.21624 29.1903 7.86494 28.194 6.86864C27.1977 5.87244 25.8465 5.31264 24.4375 5.31264ZM14.3544 2.12514C15.0525 2.12394 15.744 2.26034 16.3894 2.52644C17.0348 2.79264 17.6214 3.18344 18.1156 3.67644L19.7519 5.31264H6.63C6.43199 5.31404 6.23753 5.26004 6.06857 5.15684C5.8996 5.05354 5.76285 4.90514 5.67375 4.72834L4.44125 2.26334C4.72304 2.17364 5.01678 2.12704 5.3125 2.12514H14.3544ZM2.125 10.6251V5.31264C2.12558 4.66744 2.32194 4.03764 2.68813 3.50644L3.75063 5.63144C4.01126 6.17354 4.41995 6.63074 4.92946 6.95034C5.43898 7.27004 6.02853 7.43894 6.63 7.43764H12.75V11.6876H10.2531C9.9547 11.0521 9.4814 10.5146 8.8887 10.1382C8.296 9.76174 7.6084 9.56184 6.90625 9.56184C6.2041 9.56184 5.51646 9.76174 4.92376 10.1382C4.33107 10.5146 3.85782 11.0521 3.55937 11.6876H3.1875C2.90571 11.6876 2.63546 11.5757 2.4362 11.3765C2.23694 11.1772 2.125 10.9069 2.125 10.6251ZM6.90625 14.8751C6.59104 14.8751 6.2829 14.7817 6.02081 14.6066C5.75872 14.4314 5.55444 14.1825 5.43382 13.8913C5.31319 13.6001 5.28163 13.2796 5.34312 12.9705C5.40462 12.6613 5.55641 12.3773 5.7793 12.1544C6.00219 11.9316 6.28617 11.7798 6.59532 11.7183C6.90448 11.6568 7.22493 11.6883 7.51615 11.809C7.80737 11.9296 8.0563 12.1339 8.2314 12.396C8.4065 12.658 8.5 12.9662 8.5 13.2814C8.5 13.7041 8.3321 14.1095 8.0332 14.4083C7.73432 14.7072 7.32894 14.8751 6.90625 14.8751ZM21.7812 14.8751C21.466 14.8751 21.1579 14.7817 20.8958 14.6066C20.6337 14.4314 20.4294 14.1825 20.3088 13.8913C20.1882 13.6001 20.1566 13.2796 20.2181 12.9705C20.2796 12.6613 20.4314 12.3773 20.6543 12.1544C20.8772 11.9316 21.1612 11.7798 21.4703 11.7183C21.7795 11.6568 22.0999 11.6883 22.3912 11.809C22.6824 11.9296 22.9313 12.1339 23.1064 12.396C23.2815 12.658 23.375 12.9662 23.375 13.2814C23.375 13.7041 23.2071 14.1095 22.9082 14.4083C22.6093 14.7072 22.2039 14.8751 21.7812 14.8751ZM26.5625 11.6876H25.1281C24.8297 11.0521 24.3564 10.5146 23.7637 10.1382C23.171 9.76174 22.4834 9.56184 21.7812 9.56184C21.0791 9.56184 20.3915 9.76174 19.7988 10.1382C19.2061 10.5146 18.7328 11.0521 18.4344 11.6876H14.875V7.43764H24.4375C24.8831 7.44004 25.3232 7.53584 25.7295 7.71884C26.1358 7.90194 26.4992 8.16804 26.7962 8.50014H26.5625C26.2807 8.50014 26.0105 8.61214 25.8112 8.81134C25.6119 9.01064 25.5 9.28094 25.5 9.56264C25.5 9.84444 25.6119 10.1147 25.8112 10.314C26.0105 10.5132 26.2807 10.6251 26.5625 10.6251H27.625C27.625 10.9069 27.5131 11.1772 27.3138 11.3765C27.1145 11.5757 26.8443 11.6876 26.5625 11.6876Z" fill="#050B20"/>
</svg>
