<svg width="18" height="15" viewBox="0 0 18 15" fill="none" xmlns="http://www.w3.org/2000/svg">
<path d="M18 8.94003C18 10.98 17.4 12.8 16.2 14.4C16.08 14.56 15.92 14.65 15.72 14.67C15.52 14.69 15.34 14.64 15.18 14.52C15.02 14.4 14.93 14.25 14.91 14.07C14.89 13.89 14.94 13.72 15.06 13.56C16.1 12.2 16.62 10.66 16.62 8.94003C16.62 7.58003 16.28 6.32003 15.6 5.16003C14.92 4.00003 13.99 3.08003 12.81 2.40003C11.63 1.72003 10.36 1.38003 9 1.38003C7.64 1.38003 6.37 1.72003 5.19 2.40003C4.01 3.08003 3.08 4.00003 2.4 5.16003C1.72 6.32003 1.38 7.58003 1.38 8.94003C1.38 10.66 1.9 12.2 2.94 13.56C3.06 13.72 3.11 13.89 3.09 14.07C3.07 14.25 2.98 14.4 2.82 14.52C2.66 14.64 2.48 14.69 2.28 14.67C2.08 14.65 1.92 14.56 1.8 14.4C0.6 12.8 0 10.98 0 8.94003C0 7.34003 0.4 5.85003 1.2 4.47003C2 3.09003 3.09 2.00003 4.47 1.20003C5.85 0.400031 7.36 3.14713e-05 9 3.14713e-05C10.64 3.14713e-05 12.15 0.400031 13.53 1.20003C14.91 2.00003 16 3.09003 16.8 4.47003C17.6 5.85003 18 7.34003 18 8.94003ZM13.44 4.74003C13.6 4.86003 13.68 5.02003 13.68 5.22003C13.68 5.42003 13.6 5.58003 13.44 5.70003L11.16 8.04003C11.36 8.40003 11.46 8.78003 11.46 9.18003C11.46 9.86003 11.22 10.44 10.74 10.92C10.26 11.4 9.68 11.64 9 11.64C8.32 11.64 7.74 11.4 7.26 10.92C6.78 10.44 6.54 9.86003 6.54 9.18003C6.54 8.50003 6.78 7.92003 7.26 7.44003C7.74 6.96003 8.32 6.72003 9 6.72003C9.4 6.72003 9.78 6.82003 10.14 7.02003L12.48 4.74003C12.6 4.58003 12.76 4.50003 12.96 4.50003C13.16 4.50003 13.32 4.58003 13.44 4.74003ZM10.08 9.18003C10.08 8.90003 9.97 8.66003 9.75 8.46003C9.53 8.26003 9.28 8.16003 9 8.16003C8.72 8.16003 8.47 8.26003 8.25 8.46003C8.03 8.66003 7.92 8.90003 7.92 9.18003C7.92 9.46003 8.03 9.71003 8.25 9.93003C8.47 10.15 8.72 10.26 9 10.26C9.28 10.26 9.53 10.15 9.75 9.93003C9.97 9.71003 10.08 9.46003 10.08 9.18003Z" fill="white"/>
</svg>
