<svg width="34" height="34" viewBox="0 0 34 34" fill="none" xmlns="http://www.w3.org/2000/svg">
<mask id="mask0_5_819" style="mask-type:luminance" maskUnits="userSpaceOnUse" x="0" y="0" width="34" height="34">
<path d="M34 0H0V34H34V0Z" fill="white"/>
</mask>
<g mask="url(#mask0_5_819)">
<path d="M30.759 15.5873L24.8898 14.6086C24.5466 14.0512 23.8644 13.0429 22.8725 12.0327C20.8927 10.0164 18.6133 8.95068 16.2806 8.95068H6.7225C5.16993 8.95068 3.73044 9.79012 2.96577 11.1414L0.331898 15.7962C0.327648 15.8037 0.324461 15.8115 0.32041 15.8191C0.116676 16.1837 0 16.6033 0 17.0499V21.9548C0 22.5049 0.445984 22.9508 0.99609 22.9508H4.18632C4.65455 24.176 5.848 25.0494 7.24339 25.0494C8.63879 25.0494 9.8322 24.176 10.3005 22.9508H22.672C23.1402 24.176 24.3336 25.0494 25.729 25.0494C27.1244 25.0494 28.3178 24.176 28.786 22.9508H33.0039C33.554 22.9508 34 22.5049 34 21.9548V19.3178C34 17.4492 32.6077 15.8482 30.759 15.5873ZM22.3976 14.5182H15.222V10.9429H16.2806C19.104 10.9429 21.2363 13.0302 22.3976 14.5182ZM8.57371 10.9429H13.2299V14.5182H8.57371V10.9429ZM4.69964 12.1225C5.08811 11.436 5.80012 10.9953 6.58152 10.9477V14.5182H3.34402L4.69964 12.1225ZM7.24339 23.0572C6.53929 23.0572 5.96647 22.494 5.96647 21.8016C5.96647 21.1093 6.53929 20.546 7.24339 20.546C7.9475 20.546 8.52032 21.1093 8.52032 21.8016C8.52032 22.494 7.9475 23.0572 7.24339 23.0572ZM25.729 23.0572C25.0248 23.0572 24.452 22.494 24.452 21.8016C24.452 21.1093 25.0249 20.546 25.729 20.546C26.4331 20.546 27.0059 21.1093 27.0059 21.8016C27.0059 22.494 26.4331 23.0572 25.729 23.0572ZM28.8857 20.9586C28.5111 19.5753 27.2381 18.5538 25.729 18.5538C24.2198 18.5538 22.9469 19.5753 22.5721 20.9586H10.4001C10.0255 19.5753 8.75254 18.5538 7.24339 18.5538C5.73425 18.5538 4.4613 19.5753 4.08657 20.9586H1.99219V17.0499C1.99219 16.7524 2.23417 16.5104 2.53167 16.5104H24.183L30.4445 17.5546C30.4541 17.5562 30.4637 17.5577 30.4734 17.559C30.6428 17.5822 30.804 17.6295 30.9541 17.6967C30.5374 17.8159 30.232 18.1988 30.232 18.6538C30.232 19.2039 30.678 19.6499 31.2281 19.6499H32.0078V20.9587L28.8857 20.9586Z" fill="#050B20"/>
</g>
</svg>
