<svg width="35" height="34" viewBox="0 0 35 34" fill="none" xmlns="http://www.w3.org/2000/svg">
<mask id="mask0_5_877" style="mask-type:luminance" maskUnits="userSpaceOnUse" x="0" y="0" width="35" height="34">
<path d="M34.5 0H0.5V34H34.5V0Z" fill="white"/>
</mask>
<g mask="url(#mask0_5_877)">
<path d="M32.2415 14.1559L30.2088 8.1182C29.6364 6.41887 28.0473 5.27734 26.2543 5.27734H22.7242C21.8084 5.27734 21.064 6.02242 21.064 6.9375V14.1545H1.49609C0.94625 14.1545 0.5 14.6008 0.5 15.1506V22.7541C0.5 24.0358 1.54258 25.0784 2.82422 25.0784H4.5727C5.02957 27.1602 6.88895 28.7227 9.10559 28.7227C11.3222 28.7227 13.1809 27.1602 13.6378 25.0784H23.3491C23.8059 27.1602 25.6646 28.7227 27.8813 28.7227C30.1026 28.7227 31.9646 27.1536 32.4168 25.0657C33.5856 24.9449 34.5 23.9541 34.5 22.7541V16.4787C34.5 15.219 33.4926 14.1904 32.2415 14.1559ZM26.2543 7.26953C27.1913 7.26953 28.0221 7.86586 28.3202 8.75371L30.1391 14.1545L23.0562 14.1546V7.26953H26.2543ZM2.49219 22.7541V16.1467H21.064V23.0862H13.6378C13.1809 21.005 11.3222 19.4425 9.10559 19.4425C6.88895 19.4425 5.02957 21.005 4.5727 23.0862H2.82422C2.64094 23.0862 2.49219 22.9374 2.49219 22.7541ZM9.10559 26.7305C7.22848 26.7305 5.94445 24.8191 6.65188 23.0862C7.04633 22.1186 7.99727 21.4346 9.10559 21.4346C10.2139 21.4346 11.1642 22.1186 11.5586 23.0862C12.2642 24.8147 10.9869 26.7305 9.10559 26.7305ZM23.0562 16.1468C23.8715 16.1468 31.1649 16.1467 32.1758 16.1467C32.3591 16.1467 32.5078 16.2955 32.5078 16.4787C32.464 22.9421 32.6103 22.8161 32.3949 23.0025C31.9068 20.9632 30.068 19.4425 27.8813 19.4425C25.6646 19.4425 23.8059 21.005 23.3491 23.0862H23.0562V16.1468ZM25.4282 25.0784C24.7208 23.3452 26.0055 21.4346 27.8813 21.4346C29.7492 21.4346 31.0465 23.3353 30.335 25.0784C29.4394 27.2767 26.3241 27.2774 25.4282 25.0784Z" fill="#050B20"/>
</g>
</svg>
